<?xml version="1.0" encoding="UTF-8"?>
<svg id="Layer_1" data-name="Layer 1" xmlns="http://www.w3.org/2000/svg" viewBox="0 0 1050.57 199.32">
  <defs>
    <style>
      .cls-1 {
        fill: none;
      }

      .cls-2 {
        fill: #2847e2;
      }
    </style>
  </defs>
  <rect class="cls-1" x="-112.1" y="-153.51" width="1292.61" height="503.03"/>
  <path class="cls-2" d="M296.92,23.25c-6.08,0-11.19,2.58-14.67,7.44l-.08.11c-7.16,10.13-77.59,109.66-91.64,123.93h0c-3.02,3.33-6.57,5.65-11.15,5.65-5.87,0-11.19-4.22-12.92-8.79,0,0-4.13-9.78-.14-25.84l4.73-19.69c6.21-23.82,2.13-39.13.8-43.25-5.84-21.55-25.49-37.43-48.9-37.43-14.19,0-27,5.85-36.21,15.24l-.18.17c-4.96,4.93-34.09,42.04-34.09,42.04L5.07,144.06c-2.46,3.32-4.48,7.47-4.48,12.08,0,10.23,8.29,18.52,18.52,18.52,5.28,0,10.15-1.81,14.1-6.77l17.15-22.65,32.2-41.64c16.49-20.48,24.48-32.5,28.46-36.15,0,0,.85-.76,1.42-1.23h-.02c2.84-2.23,5.81-4.17,9.87-4.17,5.4,0,10.05,3.12,12.32,7.64,0,0,.07.14.21.44.18.37.3.75.44,1.14.12.34.24.73.37,1.19.07.28.16.56.22.84.3,1.22.57,2.84.76,4.76v.05s1.42,10.56-2.53,26.45c-4.11,16.52-6.57,29.59-6.5,43.76v.17c0,28.08,22.56,50.84,50.38,50.84,13.27,0,25.39-4.93,34.32-13.65,8.61-7.57,91.64-121.79,98.7-131.82l.12-.17c2.73-3.8,4.34-7.38,4.34-11.91,0-10.23-8.29-18.52-18.52-18.52Z"/>
  <g>
    <path class="cls-2" d="M462.92,188.97c-4.07,0-7.25-1.15-9.54-3.44-2.3-2.3-3.44-5.56-3.44-9.81V12.21c0-4.41,1.1-7.82,3.31-10.2,2.21-2.38,5.17-3.58,8.88-3.58,3.18,0,5.61.58,7.29,1.72,1.68,1.15,3.66,3.23,5.96,6.23l109.18,143.9h-6.63V11.42c0-4.06,1.1-7.24,3.31-9.54,2.21-2.29,5.34-3.44,9.41-3.44s7.42,1.15,9.54,3.44c2.12,2.3,3.18,5.48,3.18,9.54v164.57c0,4.07-1.02,7.25-3.05,9.54-2.03,2.29-4.73,3.44-8.08,3.44s-5.79-.62-7.82-1.85c-2.03-1.23-4.2-3.35-6.49-6.36l-108.65-143.63h6.1v138.6c0,4.24-1.06,7.51-3.18,9.81-2.12,2.29-5.21,3.44-9.28,3.44Z"/>
    <path class="cls-2" d="M704.61,189.5c-14.14,0-26.28-2.69-36.44-8.08-10.16-5.39-18.02-13.07-23.59-23.06-5.57-9.98-8.35-21.86-8.35-35.64s2.73-25.18,8.21-35.24c5.48-10.07,12.99-17.93,22.53-23.59,9.54-5.65,20.41-8.48,32.6-8.48,9.01,0,17.05,1.46,24.12,4.37,7.06,2.92,13.12,7.16,18.15,12.72,5.04,5.56,8.83,12.32,11.4,20.27,2.56,7.95,3.84,16.87,3.84,26.76,0,3.01-.88,5.26-2.65,6.76-1.77,1.5-4.42,2.25-7.95,2.25h-89.04v-16.43h81.62l-4.51,3.71c0-8.83-1.28-16.34-3.84-22.53-2.56-6.18-6.36-10.9-11.4-14.18-5.04-3.27-11.26-4.9-18.68-4.9-8.3,0-15.33,1.95-21.07,5.83-5.75,3.89-10.12,9.27-13.12,16.17-3,6.89-4.51,14.93-4.51,24.11v1.59c0,15.55,3.66,27.26,11,35.11,7.33,7.87,17.98,11.79,31.93,11.79,5.3,0,10.91-.7,16.83-2.12,5.92-1.41,11.53-3.8,16.83-7.15,3-1.76,5.7-2.56,8.08-2.38,2.38.18,4.33.97,5.83,2.38,1.5,1.41,2.43,3.18,2.78,5.3.35,2.12,0,4.28-1.06,6.49-1.06,2.21-2.92,4.2-5.57,5.96-6.01,4.07-12.98,7.11-20.93,9.14-7.95,2.03-15.64,3.05-23.05,3.05Z"/>
    <path class="cls-2" d="M842.41,189.5c-13.08,0-24.34-2.74-33.79-8.22-9.45-5.47-16.83-13.25-22.13-23.32-5.3-10.07-7.95-21.91-7.95-35.51,0-10.42,1.5-19.7,4.51-27.83,3-8.12,7.29-15.15,12.85-21.07,5.57-5.92,12.28-10.42,20.14-13.51,7.86-3.09,16.65-4.64,26.37-4.64,12.89,0,24.07,2.74,33.52,8.21,9.45,5.48,16.83,13.21,22.13,23.19,5.3,9.98,7.95,21.86,7.95,35.64,0,10.25-1.5,19.52-4.51,27.83-3,8.3-7.29,15.37-12.85,21.2-5.56,5.83-12.28,10.3-20.14,13.38-7.86,3.09-16.56,4.64-26.1,4.64ZM842.41,168.83c7.24,0,13.6-1.76,19.08-5.3,5.47-3.53,9.76-8.75,12.85-15.64,3.09-6.89,4.64-15.37,4.64-25.44,0-15.19-3.36-26.67-10.07-34.45-6.71-7.77-15.55-11.66-26.5-11.66-7.42,0-13.87,1.72-19.35,5.17-5.48,3.44-9.76,8.61-12.85,15.5-3.09,6.89-4.64,15.37-4.64,25.44,0,15.02,3.35,26.5,10.07,34.45,6.71,7.95,15.64,11.93,26.77,11.93Z"/>
    <path class="cls-2" d="M949.2,188.97c-4.24,0-7.51-1.19-9.81-3.58-2.3-2.38-3.44-5.7-3.44-9.94v-106c0-4.41,1.14-7.77,3.44-10.07,2.3-2.29,5.48-3.44,9.54-3.44s7.46,1.15,9.67,3.44c2.21,2.3,3.31,5.66,3.31,10.07v20.67l-2.92-4.77c3.89-9.89,9.98-17.36,18.29-22.39,8.3-5.04,17.84-7.55,28.62-7.55s18.77,1.9,25.57,5.7c6.8,3.8,11.88,9.54,15.24,17.22,3.35,7.68,5.04,17.36,5.04,29.02v68.11c0,4.24-1.15,7.55-3.45,9.94-2.3,2.38-5.56,3.58-9.8,3.58s-7.78-1.19-10.07-3.58c-2.3-2.38-3.44-5.7-3.44-9.94v-66.52c0-11.13-2.17-19.25-6.49-24.38-4.33-5.12-11.09-7.68-20.27-7.68-10.78,0-19.39,3.36-25.84,10.07-6.45,6.71-9.67,15.73-9.67,27.03v61.48c0,9.01-4.51,13.51-13.52,13.51Z"/>
  </g>
</svg>