<svg class="logo__svg" height="47" preserveaspectratio="xMinYMid meet" viewBox="0 -4 282 51" width="282" x="0" xmlns="http://www.w3.org/2000/svg" xmlns:xlink="http://www.w3.org/1999/xlink" y="0">
<title></title>
<defs>
<g class="name" fill="currentColor" id="logo">
<g class="logo__letters">
<path d="M.87 17.45C.87 12.25 5.26 8 12.25 8c9.7 0 12.37 7.54 12.37 7.54L20.1 18.4s-2.02-4.9-7.86-4.9c-4.04 0-5.95 1.55-5.95 3.76 0 1.92.98 3.17 4.22 3.59l4.9.6c7.35.95 10.18 4.36 10.18 8.85 0 5.2-4.22 9.69-12.42 9.69C2.48 40 0 32.16 0 32.16l4.33-2.8s2.08 5.14 8.79 5.14c5.31 0 6.99-1.86 6.99-4.07 0-1.97-1.1-3.17-4.85-3.65l-4.92-.6C3.87 25.35.87 22.06.87 17.45"></path>
<path d="M66.66 22.98c0-6.2-2.01-9.43-6.78-9.43-5.2 0-7.46 3.52-7.46 10.39v15.1h-5.48V22.98c0-6.2-2.03-9.43-6.8-9.43-5.1 0-7.28 3.34-7.28 9.91v15.58H27.2V9.08h5.52l-.06 4.28C33.7 11.16 35.79 8 41 8c5.15 0 8.33 2.5 9.98 7.82l.88-2.27A9.82 9.82 0 0160.92 8c6.96 0 11.4 4.54 11.4 14.5v16.54h-5.66V22.98z"></path>
<path d="M88.98 8.32c5.77 0 8.89 3.14 10.19 5.45V9.2h5.47v29.9h-5.47v-4.56C97.87 36.92 94.75 40 88.98 40c-8.12 0-14.42-6.87-14.42-15.87 0-8.94 6.3-15.81 14.42-15.81zm.6 5.5c-5.66 0-9.55 4.27-9.55 10.31 0 6.1 3.89 10.36 9.54 10.36 5.65 0 9.6-4.26 9.6-10.36 0-6.04-3.95-10.3-9.6-10.3z"></path>
<path d="M106.88 9.17h5.59v4.1c1.5-3.4 4.08-4.95 8.65-4.95h1.44v6.04h-2.22c-5.23 0-7.75 1.97-7.87 7.35v17.33h-5.59V9.17z"></path>
<path d="M127.32 28.37V14.42h-5.08V8.41h5.08V0h5.55v8.4h7.17v6.02h-7.17V27.6c0 3.99.84 5.9 4.42 5.9h2.87v5.54h-4.24c-6.1 0-8.6-3.4-8.6-10.67"></path>
<path d="M188.3 40c-8.87 0-15.18-7.06-15.18-16.03 0-8.91 6.37-15.97 15.17-15.97 6.49 0 11.49 3.77 13.63 9.27l-5.06 2.15c-1.43-3.64-4.28-5.86-8.57-5.86-5.77 0-9.64 4.3-9.64 10.41 0 6.16 3.87 10.47 9.64 10.47 3.81 0 6.43-1.8 8.04-4.9l5.23 1.85A14.07 14.07 0 01188.3 40"></path>
<path d="M206.68 28.37V14.48h-5.08V8.94h5.08V0h5.55v8.94h7.17v5.54h-7.17V27.6c0 3.99.84 5.9 4.42 5.9h2.87v5.54h-4.24c-6.1 0-8.6-3.4-8.6-10.67"></path>
<path d="M235.41 8.32l30.04.06a15.83 15.83 0 0115.83 15.84c-.02 8.65-7 15.66-15.63 15.78h-.26l-30.04-.06a15.83 15.83 0 01-15.83-15.84c.02-8.65 7-15.66 15.63-15.78h.26z"></path>
</g>
<g class="logo__shapes logo__shapes--one" fill="#70f">
<path d="M171.84 24.16a15.84 15.84 0 11-31.68 0 15.84 15.84 0 0131.68 0"></path>
</g>
<g class="logo__shapes logo__shapes--two" fill="#60d4e8">
<path d="M251.2 24.16a15.84 15.84 0 11-31.68 0 15.84 15.84 0 0131.68 0"></path>
</g>
</g>
</defs>
<use fill="currentColor" x="0" href="#logo" y="0"></use>
</svg>